<svg xmlns="http://www.w3.org/2000/svg" fill="none" viewBox="4.01 1.8 193.01 53.94">
<g clip-path="url(#clip0_309_1208)">
<path d="M76.6328 47.3283V36.4375H77.5574V46.5248H83.7494V47.3277H76.6328V47.3283Z" fill="white"/>
<path d="M92.5763 46.5501H99.0531V47.3283H91.6562V36.4375H98.9778V37.2157H92.5763V41.3448H98.2416V42.1229H92.5763V46.5495V46.5501Z" fill="white"/>
<path d="M115.74 47.3283L114.222 43.6425H108.859L107.344 47.3283H106.395L110.917 36.4375H112.176L116.695 47.3283H115.742H115.74ZM109.18 42.8597H113.9L111.536 37.1278L109.18 42.8597Z" fill="white"/>
<path d="M132.132 47.332L128.292 42.6958C128.027 42.7038 127.821 42.709 127.673 42.709C127.33 42.709 127.014 42.7021 126.727 42.6878C126.439 42.674 126.092 42.6527 125.685 42.6211V47.332H124.773V36.6549C125.272 36.5521 125.773 36.4728 126.276 36.4166C126.779 36.358 127.331 36.3281 127.928 36.3281C128.966 36.3281 129.813 36.439 130.472 36.6589C131.133 36.876 131.624 37.2171 131.948 37.68C132.271 38.1434 132.433 38.7487 132.433 39.4953C132.433 41.2423 131.383 42.2771 129.283 42.6005L133.219 47.332H132.132H132.132ZM125.685 41.8551C126.087 41.8924 126.422 41.9171 126.69 41.9309C126.957 41.9452 127.297 41.9515 127.71 41.9515C128.611 41.9515 129.344 41.8625 129.908 41.6839C130.474 41.5059 130.887 41.2377 131.15 40.8799C131.411 40.5198 131.543 40.0667 131.543 39.5166C131.543 38.9141 131.42 38.4363 131.175 38.0814C130.929 37.7277 130.545 37.4738 130.025 37.3205C129.506 37.1649 128.816 37.0862 127.958 37.0862C127.503 37.0862 127.106 37.1028 126.77 37.1367C126.435 37.1677 126.072 37.2183 125.686 37.2872V41.8556L125.685 41.8551Z" fill="white"/>
<path d="M149.716 36.4375H150.599V47.3283H149.637L142.461 37.7394V47.3283H141.578V36.4375H142.541L149.716 46.0264V36.4375Z" fill="white"/>
<path d="M159.852 36.4375H160.777V47.3283H159.852V36.4375Z" fill="white"/>
<path d="M178.164 36.4375H179.048V47.3283H178.085L170.909 37.7394V47.3283H170.027V36.4375H170.99L178.165 46.0264V36.4375H178.164Z" fill="white"/>
<path d="M196.585 42.032V47.1822C196.049 47.2661 195.57 47.3247 195.146 47.358C194.721 47.3918 194.264 47.4085 193.773 47.4085C191.785 47.4085 190.285 46.9462 189.276 46.0193C188.266 45.0907 187.762 43.7141 187.762 41.8902C187.762 40.6348 188 39.5925 188.477 38.7603C188.956 37.927 189.624 37.3085 190.477 36.9071C191.33 36.5051 192.326 36.3047 193.464 36.3047C193.929 36.3047 194.386 36.3357 194.836 36.3966C195.285 36.4586 195.762 36.5539 196.267 36.6814V37.4975C195.748 37.3551 195.269 37.2569 194.828 37.2006C194.39 37.1449 193.958 37.1167 193.531 37.1167C192.038 37.1167 190.866 37.5021 190.012 38.2716C189.159 39.0417 188.732 40.2362 188.732 41.8529C188.732 45.0246 190.403 46.6102 193.745 46.6102C194.483 46.6102 195.134 46.566 195.694 46.4764V42.0326H196.586L196.585 42.032Z" fill="white"/>
<path d="M97.0968 19.7488C97.0968 25.5606 92.5972 29.5295 86.3944 29.5295C80.1915 29.5295 75.6914 25.5623 75.6914 19.7488C75.6914 13.9353 80.1904 9.96875 86.3944 9.96875C92.5984 9.96875 97.0968 13.9359 97.0968 19.7488ZM94.4137 19.7488C94.4137 15.4739 92.1229 11.3654 86.3944 11.3654C80.6659 11.3654 78.3745 15.4739 78.3745 19.7488C78.3745 24.0238 80.6653 28.1323 86.3944 28.1323C92.1234 28.1323 94.4137 24.0244 94.4137 19.7488Z" fill="white"/>
<path d="M130.35 29.5295L120.737 21.0622L120.29 21.4539V29.5295H117.496V9.96875H120.29V19.6093L131.327 9.96875H133.452L122.834 19.2182L134.568 29.5295H130.35Z" fill="white"/>
<path d="M144.014 29.5295H143.426L134.148 9.96875H137.221L144.487 25.2815L151.753 9.96875H153.291L144.013 29.5295H144.014Z" fill="white"/>
<path d="M105.957 9.96875H106.544L115.822 29.5295H112.748L105.482 14.2167L98.2176 29.5295H96.6797L105.957 9.96875Z" fill="white"/>
<path d="M157.261 9.96875H157.848L167.126 29.5295H164.052L156.786 14.2167L149.52 29.5295H147.984L157.262 9.96875H157.261Z" fill="white"/>
<path d="M182.131 29.5295H168.801V9.96875H171.595V28.1323H182.132L182.131 29.5295Z" fill="white"/>
<path d="M186.602 11.3654V18.436H194.706V19.8333H186.602V28.1317H197.02V29.5289H183.809V9.96875H197.02V11.3654H186.602Z" fill="white"/>
<path d="M65.0095 3.68972C63.7983 2.4774 62.1558 1.79688 60.4416 1.79688H10.4719C8.75819 1.79688 7.11516 2.4774 5.90399 3.68972C4.69225 4.90032 4.01172 6.54335 4.01172 8.25759V49.2708C4.01172 50.9833 4.69225 52.6258 5.90399 53.8386C6.60577 54.541 7.45341 55.0636 8.37572 55.38C8.94713 55.5759 9.54668 55.6936 10.1583 55.7235C10.2622 55.7286 10.3668 55.7315 10.4719 55.7315H31.9995C32.0139 55.5471 32.0248 55.3651 32.0323 55.1899C32.0392 55.0309 32.0438 54.877 32.0466 54.7322C32.0466 54.0282 31.9685 53.2868 31.7934 52.6223C30.6017 48.2468 22.8466 52.036 20.0739 52.5241C17.4942 52.8176 16.0884 52.2697 13.724 51.4502C12.8655 51.1562 12.1224 50.923 11.2046 50.8638C10.4242 50.8248 9.46628 50.6881 11.2046 50.5325C12.1614 50.4929 12.9631 50.6295 13.8998 50.8248C16.1073 51.2739 17.5149 51.646 19.8006 51.1372C22.3986 50.3751 23.6287 49.2036 25.7967 48.5001C24.3713 48.2262 23.1406 47.9729 21.7922 47.4256C18.6474 46.0192 18.8432 45.4139 15.092 45.063C14.0968 45.0038 13.0613 44.9447 12.143 44.5157C11.7916 44.3394 11.5567 44.1436 11.3609 43.8323C11.1851 43.5383 11.2437 43.2258 11.4786 43.5773C12.0839 44.4761 14.1548 44.2027 15.092 44.1436L15.6192 44.1062C16.5369 44.0471 17.3581 43.9885 18.2764 44.0471C17.964 43.304 17.8273 42.62 17.7682 41.7224C17.7291 40.8041 17.8072 40.003 17.9054 39.1048C17.964 38.3438 18.022 37.6599 17.8853 36.8978C17.7682 36.3505 17.6114 35.2961 18.1788 36.8197C18.4527 37.6001 18.4722 38.3036 18.5119 39.1243C18.5509 39.9829 18.5699 40.765 18.7261 41.6242C18.9007 42.5419 19.1556 43.1673 19.7024 43.9494C20.484 44.9447 21.2254 45.3559 22.4176 45.6878C23.6678 46.0002 24.8589 46.0588 26.1481 46.1369C28.9811 46.2931 30.1722 46.2742 32.204 47.5428L32.243 47.2895C32.0288 46.176 30.7194 44.5944 29.2941 43.1489C26.9889 40.7851 24.6062 39.6515 23.785 36.1943C23.5707 34.8085 23.8441 33.5572 24.0009 32.1898C24.0589 31.5259 24.0979 30.9603 24.0198 30.2958C23.9228 29.6899 24.0589 29.4551 24.3121 30.2367C24.508 30.9212 24.5671 31.5064 24.6062 32.2105C24.6447 33.4015 24.5671 34.7695 24.9576 35.8819C25.5825 37.5037 26.2458 38.1095 27.6924 38.9882C28.1805 39.2621 28.6095 39.4953 29.0201 39.7296C29.0787 38.871 29.2941 38.0889 29.645 37.1706L29.684 37.054C29.8408 36.5262 29.9579 35.999 29.8408 35.3541C29.6266 34.6707 29.3136 34.2607 28.8645 33.6944C28.3172 33.0294 27.9256 32.5614 27.6533 31.72C27.5161 31.2319 27.4966 30.8425 27.5161 30.3343C27.5752 29.7284 27.7314 29.2012 27.8865 30.3142C27.9457 30.7633 28.0433 31.0763 28.2586 31.4668C28.6296 32.1117 29.0787 32.4431 29.645 32.9123C30.2503 33.4004 30.6804 33.7725 31.0508 34.3572C31.5981 33.3418 32.1454 32.365 32.498 31.3887C32.6152 30.9786 32.6152 30.6857 32.4779 30.2952C32.3211 29.9041 32.0868 29.6113 31.833 29.2793C31.5407 28.9072 31.3058 28.5948 31.0904 28.1658C30.6804 27.228 31.0508 27.6776 31.3058 28.0486C31.5591 28.419 31.8525 28.6734 32.1845 28.9663C32.5554 29.2983 32.8294 29.5521 33.1027 29.9817C33.4146 30.529 33.4927 30.9597 33.4341 31.5839C33.2004 33.6152 32.1448 35.6459 31.6762 37.7558C31.4804 38.7522 31.423 39.5734 31.7153 40.5497C32.0076 41.3692 32.7697 42.3081 33.6483 43.2253C34.3133 43.8708 34.8985 44.4956 35.3677 45.1784C35.8369 44.4755 36.4233 43.8708 37.0871 43.2253C37.9658 42.288 38.7078 41.3692 39.0202 40.5497C39.2941 39.5734 39.2361 38.7522 39.0592 37.7558C38.5912 35.6459 37.5557 33.6347 37.3013 31.5839C37.2227 30.9591 37.3209 30.529 37.6333 29.9817C37.9061 29.5521 38.18 29.2983 38.5516 28.9663C38.8829 28.6729 39.1569 28.419 39.4296 28.0486C39.684 27.6575 40.055 27.2274 39.645 28.1658C39.4296 28.5948 39.1959 28.9072 38.9024 29.2793C38.6492 29.6113 38.4143 29.9041 38.2575 30.2952C38.1208 30.7047 38.1404 30.9786 38.2386 31.3887C38.59 32.3851 39.1368 33.3613 39.6835 34.3572C40.0751 33.772 40.4852 33.4004 41.0899 32.9123C41.6751 32.4431 42.1052 32.1111 42.4774 31.4668C42.6916 31.0763 42.7892 30.7437 42.8484 30.3142C43.0046 29.2012 43.1596 29.7479 43.2188 30.3343C43.2383 30.8425 43.2188 31.2319 43.0821 31.72C42.7886 32.5614 42.4177 33.0294 41.8715 33.6944C41.4207 34.2406 41.0893 34.6512 40.8935 35.3541C40.7763 36.0191 40.8745 36.5463 41.0503 37.054L41.0893 37.1706C41.4408 38.0889 41.6556 38.871 41.7147 39.7296C42.1248 39.4947 42.5538 39.2616 43.0425 38.9882C44.488 38.1095 45.1518 37.5037 45.7772 35.8819C46.1677 34.7695 46.0896 33.382 46.1287 32.2105C46.1677 31.5064 46.2263 30.9212 46.4221 30.2367C46.6754 29.4355 46.8127 29.6698 46.7145 30.2958C46.6364 30.9603 46.6559 31.5265 46.7346 32.1898C46.8908 33.5566 47.1641 34.808 46.9488 36.1943C46.1476 39.6521 43.7649 40.8047 41.4402 43.1489C40.0143 44.5944 38.7049 46.176 38.4901 47.2895L38.5292 47.5428C40.561 46.2742 41.7722 46.2925 44.585 46.1369C45.8743 46.0588 47.0653 46.0002 48.3156 45.6878C49.5072 45.3363 50.2687 44.9257 51.0308 43.9494C51.5781 43.1868 51.8124 42.5419 52.0071 41.6242C52.1639 40.765 52.184 39.9829 52.223 39.1243C52.2621 38.3042 52.3011 37.6007 52.5544 36.8197C53.1206 35.2961 52.9644 36.3505 52.8467 36.8978C52.7111 37.6599 52.7686 38.3433 52.8277 39.1048C52.9254 40.003 53.0035 40.8041 52.9644 41.7224C52.9058 42.62 52.7686 43.304 52.4562 44.0471C53.3744 43.9885 54.1957 44.0275 55.1134 44.1062L55.6406 44.1436C56.5778 44.2222 58.6493 44.4766 59.254 43.5773C59.4889 43.2258 59.5463 43.5383 59.3717 43.8323C59.1759 44.1637 58.9416 44.3394 58.5901 44.5157C57.6724 44.9447 56.637 44.9837 55.64 45.063C51.8704 45.4139 52.0852 46.0393 48.9398 47.4256C47.5914 47.9918 46.3613 48.2267 44.9353 48.5001C47.1032 49.2036 48.3345 50.3757 50.9326 51.1372C53.2182 51.6455 54.6241 51.2739 56.8316 50.8248C57.7683 50.629 58.5505 50.4739 59.5268 50.5325C61.2651 50.6887 60.309 50.8248 59.5268 50.8638C58.6091 50.923 57.8659 51.1562 57.0068 51.4502C54.643 52.2697 53.2372 52.817 50.6592 52.5241C47.8854 52.036 40.1297 48.2468 38.9381 52.6223C38.7623 53.2868 38.6848 54.0282 38.6848 54.7322C38.6871 54.8764 38.6923 55.0303 38.6997 55.1899C38.7078 55.3634 38.7192 55.5431 38.7342 55.7252C38.7491 55.7275 38.7646 55.7298 38.779 55.7321H60.4376C60.4939 55.7321 60.5501 55.7292 60.6059 55.7281C61.2663 55.7108 61.9141 55.5931 62.5291 55.3829C63.4526 55.067 64.302 54.5439 65.0049 53.8404C66.2166 52.6281 66.8972 50.985 66.8972 49.2725V8.25759C66.8972 6.54392 66.2166 4.90032 65.0049 3.68972H65.0095ZM27.2416 52.5614C27.554 51.1361 28.4332 50.8811 28.9024 50.842C29.1356 50.8231 29.1947 50.9994 29.1557 51.1935C28.9024 52.2881 27.964 52.6407 27.4759 52.7561C27.3002 52.7957 27.202 52.7188 27.241 52.5609L27.2416 52.5614ZM26.2842 51.2727C26.5191 51.2142 26.5967 51.3899 26.5783 51.5668C26.5002 52.6993 25.66 53.2075 25.1908 53.4016C25.034 53.4608 24.9375 53.4217 24.9375 53.2466C24.9955 51.7999 25.8352 51.3899 26.2842 51.2727ZM21.7916 53.93C22.1821 52.5224 23.0809 52.3082 23.5495 52.3082C23.7844 52.3082 23.8435 52.4828 23.7844 52.6596C23.453 53.7531 22.4951 54.046 22.007 54.1241C21.8508 54.1631 21.7537 54.085 21.7916 53.93ZM18.8817 54.3394C19.468 53.0117 20.3852 52.9336 20.8544 52.991C21.0893 53.0301 21.1076 53.2069 21.0301 53.3821C20.5621 54.3974 19.5846 54.5536 19.0775 54.5737C18.9007 54.5737 18.8225 54.4956 18.8817 54.3389V54.3394ZM10.7556 36.0364C12.22 36.0565 12.6312 36.876 12.7673 37.3256C12.8264 37.5605 12.6697 37.6587 12.475 37.6381C11.3609 37.599 10.8147 36.7399 10.6183 36.2913C10.5408 36.1334 10.5798 36.0364 10.7556 36.0364ZM9.17397 40.6467C9.19292 40.4899 9.29113 40.4118 9.42723 40.49C9.74596 40.6663 9.98314 40.8575 10.1583 41.0522C10.682 41.6334 10.6528 42.2432 10.5798 42.5798C10.5207 42.8147 10.3449 42.8147 10.1692 42.717C10.1658 42.7147 10.1623 42.7124 10.1589 42.7101C9.19292 42.1226 9.13435 41.1331 9.17397 40.6467ZM7.43446 42.0135C8.87994 41.9946 9.34856 42.7957 9.48524 43.2448C9.56334 43.4785 9.40713 43.5762 9.21302 43.5572C8.07938 43.5572 7.51256 42.736 7.29778 42.2869C7.21968 42.1301 7.25873 42.013 7.43446 42.013V42.0135ZM10.1589 46.7887C10.3191 46.9294 10.4294 47.0828 10.5023 47.2102C10.6183 47.4244 10.5023 47.5416 10.2864 47.5807C10.2427 47.5904 10.2014 47.5967 10.1589 47.6036C9.11942 47.7799 8.43774 47.1362 8.13854 46.7606C8.04033 46.6233 8.05986 46.5056 8.21664 46.4665C9.20039 46.2242 9.80282 46.4752 10.1589 46.7881V46.7887ZM6.43808 43.6933C7.86518 44.0459 8.07938 44.9435 8.09948 45.4127C8.09948 45.6476 7.9226 45.705 7.74687 45.6476C6.65343 45.3352 6.34102 44.3974 6.24282 43.9092C6.20377 43.7525 6.28187 43.6543 6.43808 43.6933ZM4.79849 46.4482C4.70029 46.3115 4.71924 46.1949 4.87487 46.1559C6.30197 45.8819 6.88659 46.6044 7.10252 47.0144C7.21968 47.2303 7.083 47.3463 6.88659 47.3854C5.7742 47.5617 5.0908 46.8582 4.79792 46.4482H4.79849ZM5.91088 48.5581C5.83278 48.4013 5.85288 48.3031 6.02861 48.2842C7.49361 48.1664 7.98176 48.948 8.15749 49.3776C8.25569 49.5918 8.09948 49.69 7.88355 49.7095C6.77059 49.7876 6.16414 48.9865 5.91088 48.5575V48.5581ZM6.86822 51.3508C6.71144 51.2727 6.67238 51.155 6.80906 51.0585C7.96166 50.1787 8.82136 50.5503 9.19292 50.8236C9.38876 50.9609 9.3296 51.1177 9.15387 51.2532C8.25569 51.9171 7.31731 51.5852 6.86822 51.3508ZM15.6984 53.5974C16.7138 52.562 17.6114 52.8354 18.0214 53.0507C18.2374 53.1685 18.1983 53.3442 18.0605 53.4797C17.241 54.2619 16.2647 54.0661 15.7949 53.8903C15.6186 53.8318 15.5796 53.714 15.6979 53.5969L15.6984 53.5974ZM12.7874 53.0507C13.9199 52.1129 14.779 52.4833 15.1695 52.7383C15.3653 52.875 15.3068 53.0507 15.1305 53.1685C14.2518 53.8714 13.2939 53.5584 12.8448 53.3442C12.6886 53.2655 12.649 53.1484 12.7868 53.0507H12.7874ZM12.2401 51.7615C12.4353 51.9165 12.3572 52.0733 12.201 52.1904C11.4418 52.7527 10.6556 52.6016 10.1583 52.4001C10.067 52.3633 9.98486 52.3248 9.91538 52.2887C9.7586 52.2105 9.71954 52.0934 9.8568 51.9952C9.96017 51.9165 10.0601 51.851 10.1583 51.7913C11.1581 51.1854 11.9018 51.5116 12.2401 51.7609V51.7615ZM10.4242 50.0817C10.33 50.065 10.2433 50.042 10.1589 50.0162C9.24461 49.7354 8.88913 48.9457 8.76278 48.4989C8.72373 48.3422 8.78288 48.2457 8.93966 48.2641C9.49959 48.3479 9.88781 48.5311 10.1589 48.7516C10.5873 49.0996 10.7205 49.5401 10.7556 49.8267C10.7946 50.0616 10.6183 50.1207 10.4242 50.0817ZM13.2164 49.9835C12.1224 49.7302 11.7519 48.8114 11.6342 48.3232C11.5952 48.1469 11.6733 48.0493 11.83 48.0883C13.2554 48.3806 13.5294 49.2604 13.5684 49.7296C13.5885 49.9829 13.4116 50.042 13.2169 49.9829L13.2164 49.9835ZM20.8343 47.8741C22.2602 47.5227 22.8868 48.2061 23.1199 48.6155C23.2572 48.8315 23.1199 48.9475 22.9057 48.9865C21.7922 49.2398 21.0692 48.5575 20.7573 48.1664C20.6591 48.0292 20.6792 47.9132 20.8348 47.8741H20.8343ZM21.0502 49.6906C21.1283 49.9255 20.9715 50.0225 20.7567 50.0225C19.6231 50.003 19.077 49.1634 18.861 48.7131C18.7829 48.5581 18.822 48.4404 18.9989 48.4404C20.4633 48.4208 20.9118 49.2403 21.0496 49.6906H21.0502ZM17.1629 47.0535C18.3545 46.2139 19.174 46.644 19.545 46.9363C19.7408 47.0925 19.6622 47.2487 19.5065 47.3659C18.5498 47.9717 17.6303 47.6008 17.2013 47.3463C17.0446 47.2688 17.0245 47.1511 17.1623 47.0529L17.1629 47.0535ZM17.1818 48.7338C18.6078 49.0853 18.8225 49.984 18.8426 50.4527C18.8426 50.7059 18.6663 50.7461 18.4912 50.6875C17.3972 50.3751 17.0848 49.4373 16.9866 48.9486C16.9492 48.7918 17.0256 48.6953 17.1824 48.7344L17.1818 48.7338ZM14.5453 46.7795C15.4434 45.647 16.3623 45.8032 16.7919 45.9784C17.0061 46.0766 16.986 46.2523 16.87 46.3884C16.1481 47.2688 15.1511 47.1706 14.663 47.0529C14.5062 47.0138 14.4471 46.9174 14.5453 46.779V46.7795ZM14.702 48.3232C16.0487 48.8705 16.1475 49.7876 16.1073 50.2568C16.0884 50.5101 15.9132 50.5308 15.7174 50.4314C14.6819 50.0024 14.4861 49.0256 14.4672 48.5185C14.4672 48.3416 14.5453 48.2635 14.702 48.3226V48.3232ZM13.8998 45.7441C14.1347 45.8228 14.1157 45.9991 13.998 46.1742C13.2945 47.0529 12.2981 46.9937 11.8099 46.8973C11.6342 46.8582 11.5751 46.7606 11.6733 46.6233C12.5531 45.4512 13.4507 45.5885 13.8998 45.7435V45.7441ZM11.5952 44.8855C11.7709 45.0618 11.6733 45.2169 11.5171 45.2956C11.0203 45.558 10.5534 45.5781 10.1583 45.4966C9.76089 45.4139 9.437 45.2278 9.2314 45.0814C9.0752 44.9826 9.0752 44.8654 9.21245 44.7873C9.56564 44.5863 9.87977 44.4812 10.1583 44.4387C10.8807 44.3273 11.3557 44.6461 11.5952 44.8855ZM10.3248 38.4777C10.2668 38.3214 10.3059 38.2037 10.4816 38.2244C11.9466 38.3421 12.3182 39.2007 12.4164 39.6498C12.475 39.8847 12.2981 39.9622 12.104 39.9438C10.9703 39.8261 10.5023 38.9474 10.3254 38.4777H10.3248ZM12.7282 43.0691C12.6496 43.3022 12.475 43.3022 12.3182 43.2046C11.381 42.5603 11.381 41.5639 11.4395 41.0757C11.4591 40.9 11.5567 40.8225 11.6928 40.9195C12.9235 41.7011 12.8655 42.6183 12.7282 43.0685V43.0691ZM13.2945 35.3334C14.6429 35.8997 14.7411 36.818 14.6819 37.286C14.6429 37.5404 14.4677 37.5599 14.2914 37.4623C13.256 37.0132 13.0803 36.0364 13.0619 35.5275C13.0619 35.3518 13.14 35.2743 13.295 35.3334H13.2945ZM13.1578 38.5563C13.1578 38.3806 13.2359 38.3019 13.3927 38.3806C14.702 39.0249 14.7204 39.9432 14.6429 40.4113C14.6038 40.6462 14.4287 40.6657 14.2524 40.5675C13.256 40.0403 13.1394 39.064 13.1584 38.5563H13.1578ZM15.2292 43.3821C15.2091 43.6152 15.0334 43.6353 14.8387 43.5578C13.8033 43.1087 13.6276 42.1307 13.6075 41.623C13.6075 41.4473 13.6856 41.3686 13.8423 41.4278C15.1908 41.9946 15.2872 42.9123 15.2298 43.3821H15.2292ZM13.7637 33.0874C13.7051 32.9312 13.7832 32.8135 13.9382 32.8525C15.3653 33.1265 15.6387 34.0045 15.6979 34.4737C15.7168 34.7086 15.56 34.7678 15.3648 34.7281C14.2708 34.4944 13.8802 33.5755 13.7631 33.0874H13.7637ZM15.7949 35.5672C17.2013 35.9973 17.3575 36.9156 17.3575 37.3848C17.3575 37.638 17.1812 37.6771 16.9871 37.599C15.9126 37.2475 15.6387 36.2712 15.5796 35.7825C15.56 35.6056 15.6387 35.5086 15.7949 35.5666V35.5672ZM15.3854 38.1072C15.3854 37.9505 15.4618 37.8523 15.6186 37.9315C16.9481 38.5563 16.9854 39.474 16.928 39.9432C16.8889 40.1781 16.7138 40.1965 16.5363 40.0994C15.521 39.5912 15.3854 38.6149 15.3854 38.1072ZM17.1232 43.1271C16.0487 42.7957 15.7564 41.8378 15.6783 41.3497C15.6393 41.1733 15.7174 41.0947 15.8742 41.1343C17.28 41.5449 17.4758 42.4437 17.4758 42.9123C17.4758 43.1472 17.299 43.1851 17.1232 43.1265V43.1271ZM17.7871 35.295C17.709 35.5281 17.5338 35.5092 17.3776 35.392C16.4594 34.7281 16.4795 33.7323 16.5576 33.2442C16.5771 33.0874 16.6753 33.0093 16.8108 33.1069C18.022 33.9264 17.9249 34.8459 17.7871 35.295ZM18.1782 32.5395C18.1391 32.7928 17.964 32.7928 17.7481 32.6762C16.7718 32.11 16.6937 31.1337 16.7327 30.6254C16.7528 30.4497 16.8309 30.3722 16.986 30.4497C18.2764 31.1526 18.2764 32.0904 18.1782 32.5395ZM22.2217 29.3568C23.5702 29.9231 23.6488 30.8414 23.6092 31.3094C23.5897 31.5432 23.414 31.5638 23.2187 31.4857C22.1833 31.0361 22.0075 30.0598 21.9874 29.551C21.9874 29.3752 22.0661 29.2977 22.2223 29.3568H22.2217ZM21.5573 34.611C22.9832 34.9033 23.2572 35.7831 23.2962 36.2517C23.3163 36.4855 23.14 36.5452 22.9448 36.5061C21.8513 36.2517 21.4798 35.334 21.3632 34.8459C21.3241 34.6696 21.4022 34.5708 21.5573 34.611ZM21.3425 32.2082C21.3035 32.0514 21.3816 31.9532 21.5383 31.9922C22.9643 32.3449 23.198 33.2436 23.2181 33.7117C23.2382 33.9649 23.0614 34.004 22.8471 33.9259C21.7727 33.6336 21.4413 32.6963 21.3431 32.2076L21.3425 32.2082ZM20.7567 26.3281C20.7763 26.1719 20.8733 26.0932 21.01 26.1925C21.6848 26.6491 21.9536 27.1367 22.0351 27.5559C22.1 27.8895 22.0472 28.1801 21.9863 28.3788C21.9082 28.6137 21.733 28.593 21.5768 28.4765C21.2024 28.206 20.9859 27.8798 20.8636 27.5559C20.6861 27.085 20.7102 26.6175 20.7567 26.3281ZM19.4876 28.7889C20.8733 29.219 21.0502 30.1373 21.0502 30.6065C21.0502 30.8598 20.8733 30.8804 20.6792 30.8207C19.6047 30.4497 19.3308 29.4918 19.2716 29.0042C19.2527 28.8274 19.3308 28.7303 19.4876 28.7883V28.7889ZM19.0775 31.2899C19.0965 31.1337 19.1947 31.0562 19.3308 31.1526C20.542 31.9739 20.4443 32.8916 20.3071 33.3407C20.229 33.5756 20.0538 33.5549 19.897 33.4383C18.9793 32.7744 18.9994 31.778 19.0775 31.2899ZM18.6859 36.3878C18.2954 35.3334 18.8616 34.5122 19.1941 34.1412C19.3107 34.004 19.4278 34.004 19.4876 34.1613C20.0538 35.5086 19.468 36.2316 19.0959 36.5239C18.9001 36.6612 18.7645 36.563 18.6859 36.3873V36.3878ZM19.0959 38.7315C19.0178 37.6191 19.8 36.9931 20.229 36.7399C20.3662 36.6618 20.4834 36.6807 20.5029 36.8576C20.6591 38.322 19.8769 38.8297 19.4479 39.0054C19.2326 39.1036 19.1166 38.9474 19.0965 38.7315H19.0959ZM19.5841 41.5828C19.3492 41.642 19.2716 41.4858 19.2917 41.2716C19.3888 40.158 20.2491 39.6498 20.7177 39.474C20.8727 39.4149 20.971 39.4539 20.971 39.6308C20.8727 41.0947 20.0343 41.4674 19.5835 41.5828H19.5841ZM21.3236 43.9092C21.1467 44.0655 20.9905 43.9483 20.9118 43.772C20.4828 42.7366 21.0295 41.8964 21.3626 41.5254C21.4792 41.3887 21.5975 41.3887 21.6549 41.5455C22.2413 42.8732 21.675 43.5963 21.3236 43.9092ZM23.5305 45.0021C23.3933 45.1979 23.2181 45.1198 23.101 44.9631C22.475 44.0258 22.827 43.0874 23.0809 42.6579C23.159 42.5212 23.2773 42.4821 23.3749 42.6183C24.2335 43.8105 23.8234 44.6317 23.5311 45.0021H23.5305ZM26.5002 45.4127C26.441 45.6476 26.2653 45.6476 26.0901 45.55C25.1121 44.9636 25.0346 43.9673 25.0736 43.4791C25.0937 43.3229 25.1719 43.2454 25.3269 43.3229C26.6173 44.0264 26.5972 44.9636 26.5002 45.4127ZM27.867 43.6543C29.2929 43.9874 29.5272 44.8855 29.5468 45.3547C29.5663 45.5885 29.3906 45.6287 29.1953 45.5885C28.1019 45.295 27.7699 44.3578 27.6717 43.8696C27.6327 43.7128 27.7108 43.6146 27.8675 43.6537L27.867 43.6543ZM26.8895 41.8579C27.0664 42.0336 26.9682 42.1697 26.7925 42.2679C25.7771 42.775 24.8973 42.2869 24.5068 41.994C24.3701 41.8958 24.3506 41.7798 24.5068 41.7005C25.7961 41.016 26.5576 41.5242 26.889 41.8573L26.8895 41.8579ZM25.1713 40.0409C25.3263 40.2177 25.2299 40.3728 25.034 40.4319C23.9997 40.9006 23.1584 40.3728 22.7685 40.061C22.6513 39.9628 22.6312 39.8456 22.7874 39.7669C24.1163 39.1427 24.8583 39.6888 25.1713 40.0409ZM24.2145 38.1853C24.3512 38.3812 24.2335 38.5167 24.0187 38.5563C22.9442 38.8877 22.1637 38.2629 21.8307 37.8913C21.733 37.7742 21.733 37.6581 21.8898 37.599C23.2773 37.1499 23.9406 37.7948 24.2145 38.1853ZM24.0968 28.6912C23.9796 28.9055 23.8045 28.848 23.6672 28.6912C23.3284 28.318 23.1877 27.9217 23.1498 27.5553C23.1027 27.097 23.2181 26.6858 23.3163 26.4251C23.3939 26.2683 23.4921 26.231 23.6086 26.347C24.0325 26.7875 24.2283 27.1975 24.2955 27.5553C24.3891 28.0544 24.2335 28.4529 24.0968 28.6912ZM45.2914 24.3163C45.408 24.1992 45.5263 24.2572 45.5653 24.414C45.702 24.9033 45.8576 25.879 45.018 26.6411C44.8808 26.7978 44.7056 26.8369 44.608 26.602C44.4127 26.1724 44.1974 25.2743 45.292 24.3163H45.2914ZM42.517 22.8709C42.5762 22.7141 42.6933 22.7141 42.811 22.8318C43.1614 23.1821 43.7477 23.9844 43.3974 25.0583C43.3382 25.2536 43.2004 25.3707 43.0063 25.2145C42.6342 24.9423 42.0099 24.2382 42.5176 22.8714L42.517 22.8709ZM36.0712 23.5347C36.0907 23.378 36.1872 23.301 36.3256 23.3981C37.5563 24.2176 37.4581 25.1364 37.3214 25.5861C37.2433 25.8192 37.0682 25.8003 36.912 25.6837C35.973 25.0187 35.9937 24.0229 36.0712 23.5347ZM36.951 32.2472C36.951 32.4413 36.8528 32.5786 36.6179 32.4821C36.1878 32.2863 35.4458 31.739 35.6417 30.2941C35.6606 30.1373 35.7783 30.0982 35.9156 30.1953C36.3256 30.4692 37.0877 31.1136 36.951 32.2478V32.2472ZM35.2316 20.742C35.3292 20.6042 35.4458 20.6042 35.5251 20.742C36.2268 22.0106 35.7393 22.7928 35.4073 23.1241C35.2316 23.3004 35.0949 23.2022 34.9973 23.0265C34.4701 22.0307 34.9382 21.1509 35.2322 20.7414L35.2316 20.742ZM34.9186 26.2689C34.9967 26.1139 35.0944 26.0748 35.2109 26.1925C35.6767 26.7042 35.8478 27.1671 35.8754 27.5559C35.9058 27.9826 35.764 28.3214 35.6411 28.5356C35.5038 28.7314 35.3287 28.6723 35.2109 28.5546C34.9267 28.2249 34.7894 27.8815 34.7383 27.5559C34.6562 27.0333 34.798 26.5584 34.9186 26.2689ZM34.098 31.5432C33.8838 31.6419 33.7867 31.5041 33.7666 31.3094C33.6299 30.1764 34.392 29.532 34.802 29.2586C34.9376 29.161 35.0553 29.2001 35.076 29.3568C35.2712 30.8018 34.5287 31.3485 34.098 31.5437V31.5432ZM34.2749 23.3981C34.4104 23.3004 34.5086 23.378 34.5281 23.5347C34.6062 24.0229 34.6263 25.0187 33.6885 25.6837C33.5317 25.8009 33.3566 25.8192 33.2785 25.5861C33.1418 25.1364 33.0436 24.2176 34.2749 23.3981ZM27.925 22.8324C28.0427 22.7147 28.1599 22.7147 28.219 22.8714C28.7273 24.2382 28.1019 24.9423 27.7309 25.2145C27.5356 25.3713 27.3978 25.2536 27.3404 25.0583C26.9889 23.9844 27.5752 23.1821 27.9256 22.8318L27.925 22.8324ZM25.1713 24.4134C25.2109 24.2566 25.3263 24.1992 25.4452 24.3158C26.5392 25.2731 26.3233 26.1719 26.1292 26.6014C26.031 26.8363 25.8553 26.7973 25.7186 26.6405C24.879 25.8784 25.0346 24.9033 25.1719 24.4134H25.1713ZM24.9766 29.7273C24.7808 28.6137 25.4848 27.9102 25.8943 27.6173C26.031 27.5203 26.1476 27.5392 26.1878 27.696C26.4801 29.1208 25.7576 29.7273 25.347 29.942C25.1328 30.0598 25.0156 29.9231 24.9766 29.7278V29.7273ZM25.0932 32.5602C25.0541 31.4266 25.8553 30.8213 26.2842 30.5864C26.441 30.5083 26.5392 30.5278 26.5582 30.7035C26.6564 32.149 25.8553 32.6578 25.4257 32.8135C25.2115 32.8916 25.1121 32.7543 25.0937 32.5602H25.0932ZM26.3043 36.5837C26.1476 36.7594 25.9919 36.6618 25.8742 36.4855C25.308 35.5281 25.718 34.611 25.9919 34.2004C26.0901 34.0631 26.1878 34.043 26.2842 34.1808C27.0664 35.4299 26.6173 36.2316 26.3043 36.5837ZM28.2581 38.2244C28.1019 38.4202 27.9457 38.3421 27.8474 38.1853C27.2422 37.228 27.6332 36.3097 27.8865 35.8796C27.9652 35.7234 28.0823 35.7039 28.1805 35.8405C28.9817 37.0523 28.5515 37.8523 28.2586 38.2244H28.2581ZM28.7847 34.4548C28.8433 34.6885 28.6876 34.7672 28.4912 34.7672C27.3783 34.7276 26.831 33.8673 26.6351 33.4188C26.557 33.262 26.5961 33.1644 26.773 33.1644C28.2368 33.1839 28.6469 34.0034 28.7841 34.4542L28.7847 34.4548ZM27.5546 28.6912C27.2852 28.3007 27.1916 27.9096 27.1887 27.5553C27.1847 27.0603 27.3599 26.6365 27.496 26.3861C27.5747 26.2494 27.6918 26.2103 27.7894 26.347C28.1311 26.803 28.2764 27.2079 28.312 27.5553C28.3683 28.1015 28.1512 28.504 27.9841 28.7309C27.8279 28.9261 27.6717 28.848 27.5546 28.6912ZM28.7273 31.3094C28.5308 31.4656 28.3942 31.3485 28.3367 31.1526C27.9646 30.0781 28.5509 29.2782 28.903 28.9261C29.0201 28.809 29.1361 28.809 29.1953 28.9652C29.7035 30.3331 29.0982 31.0355 28.7273 31.3094ZM28.9024 25.1364C28.9214 24.9796 28.9995 24.9033 29.1557 24.9796C30.426 25.6837 30.4059 26.6209 30.3083 27.0706C30.2491 27.3038 30.0734 27.3038 29.8988 27.2073C28.9415 26.6209 28.8634 25.6246 28.9024 25.1364ZM31.1881 33.0277C31.1094 33.2626 30.9348 33.2436 30.7763 33.1064C29.8787 32.4224 29.9378 31.426 30.0349 30.9379C30.074 30.7615 30.1716 30.703 30.3088 30.8012C31.481 31.6603 31.3443 32.5786 31.1886 33.0277H31.1881ZM31.7934 30.0006C31.8324 30.2344 31.6762 30.3125 31.481 30.2941C30.368 30.1764 29.8994 29.2977 29.7225 28.8279C29.6645 28.6717 29.7035 28.554 29.8793 28.5747C31.3242 28.6918 31.6957 29.551 31.7934 30.0006ZM31.0313 25.1565C30.8946 25.3518 30.7189 25.2737 30.6212 25.1175C29.9958 24.1601 30.368 23.2413 30.6212 22.8117C30.6999 22.6549 30.8171 22.636 30.9147 22.7727C31.7342 23.9643 31.3242 24.7844 31.0319 25.1565H31.0313ZM32.4412 27.5559C32.3843 27.6656 32.3211 27.7586 32.2626 27.8333C32.1058 28.0274 31.9501 27.9498 31.8519 27.7942C31.7997 27.7144 31.7572 27.6351 31.7181 27.5559C31.2903 26.687 31.6188 25.883 31.8519 25.4885C31.93 25.3323 32.0472 25.3122 32.1454 25.4494C32.8018 26.4027 32.6703 27.1177 32.4417 27.5559H32.4412ZM32.7507 23.6329C32.5939 23.7685 32.3981 23.7685 32.3389 23.5347C32.2034 23.0856 32.1058 22.1668 33.3353 21.3473C33.4732 21.2491 33.5702 21.3272 33.5903 21.484C33.6684 21.9721 33.6879 22.9679 32.7507 23.6329ZM33.1602 29.2001C32.9632 28.5224 33.1395 27.9613 33.3893 27.5559C33.5357 27.3187 33.7069 27.1344 33.8441 27.012C33.9613 26.8949 34.079 26.9138 34.1382 27.0712C34.191 27.2441 34.2272 27.4049 34.2496 27.5559C34.4121 28.6332 33.874 29.1719 33.5317 29.3959C33.3359 29.5326 33.2004 29.4149 33.1607 29.2001H33.1602ZM33.2578 34.1412C33.5128 33.0478 34.4305 32.6762 34.9186 32.5596C35.0944 32.5206 35.1926 32.5987 35.1535 32.7537C34.8595 34.1808 33.9808 34.4542 33.5128 34.4933C33.2595 34.5122 33.2004 34.3365 33.2578 34.1406V34.1412ZM32.4974 36.8966C32.7898 35.8032 33.727 35.4707 34.2163 35.3731C34.3713 35.334 34.4695 35.4121 34.4305 35.5672C34.0974 36.9931 33.1998 37.228 32.7306 37.2475C32.4773 37.2671 32.4383 37.0908 32.4974 36.8966ZM32.3016 39.5912C32.4773 38.4777 33.375 38.0481 33.8441 37.8913C34.0199 37.8523 34.1181 37.8913 34.0974 38.0682C33.9217 39.5131 33.0631 39.8456 32.5939 39.9231C32.359 39.9622 32.3016 39.7864 32.3016 39.5912ZM33.5518 42.1508C33.3359 42.2484 33.2394 42.0916 33.2199 41.8769C33.1808 40.7633 33.9808 40.158 34.411 39.9237C34.5677 39.8456 34.6659 39.8651 34.6849 40.0409C34.7831 41.507 33.9814 41.9952 33.5524 42.1508H33.5518ZM34.6263 37.1499C34.4494 36.7203 34.2749 35.8032 35.4274 34.8838C35.5641 34.7861 35.6606 34.8453 35.6997 35.0009C35.8174 35.4896 35.9156 36.4855 35.0553 37.2079C34.8796 37.3457 34.7044 37.3848 34.6263 37.1499ZM34.9577 37.7747C34.9967 37.6197 35.1145 37.599 35.2511 37.7162C35.6417 38.0286 36.3061 38.7906 36.0327 39.8847C35.9736 40.061 35.8564 40.1971 35.6422 40.061C35.2517 39.806 34.5677 39.1823 34.9583 37.7747H34.9577ZM36.0712 43.3821C36.0121 43.5578 35.876 43.6744 35.6807 43.5371C35.3103 43.2632 34.6843 42.5608 35.1926 41.194C35.2511 41.0372 35.3683 41.0372 35.4849 41.1544C35.8375 41.507 36.4238 42.3076 36.0712 43.3821ZM37.7315 41.1734C37.6735 41.3887 37.5356 41.5064 37.341 41.3686C36.951 41.1153 36.286 40.471 36.6771 39.064C36.7161 38.9078 36.8333 38.8877 36.9694 39.0048C37.3404 39.3368 38.0048 40.0793 37.7315 41.1734ZM38.532 37.8138C38.5711 38.0102 38.5131 38.1859 38.2788 38.1652C37.8096 38.1463 36.912 37.912 36.5789 36.4855C36.5398 36.3304 36.638 36.2517 36.8138 36.2913C37.3019 36.3884 38.2397 36.7203 38.5326 37.8138H38.532ZM37.5557 35.0601C37.6143 35.2559 37.5557 35.4305 37.3013 35.4115C36.8327 35.3725 35.9541 35.0991 35.66 33.6726C35.621 33.5158 35.7192 33.4377 35.8949 33.4768C36.3842 33.5939 37.3013 33.9649 37.5557 35.0595V35.0601ZM37.5753 29.2001C37.5356 29.4143 37.3995 29.532 37.2043 29.3959C36.8614 29.1725 36.3239 28.6332 36.487 27.5559C36.51 27.4049 36.5462 27.2441 36.599 27.0712C36.657 26.9138 36.7736 26.8949 36.8913 27.012C37.028 27.1344 37.1997 27.3187 37.3461 27.5559C37.5959 27.9613 37.7728 28.5224 37.5753 29.2001ZM37.2232 21.5621C37.2433 21.4053 37.341 21.3272 37.4782 21.4254C38.7078 22.2455 38.6107 23.1637 38.4746 23.6128C38.3959 23.8477 38.2196 23.8282 38.0628 23.711C37.1262 23.0466 37.1451 22.0502 37.2232 21.5621ZM39.0179 27.5559C38.9788 27.6351 38.9363 27.7144 38.8841 27.7942C38.7859 27.9493 38.6308 28.0274 38.4746 27.8333C38.416 27.7586 38.3529 27.6656 38.2954 27.5559C38.0663 27.1171 37.9348 26.4027 38.5918 25.4494C38.6894 25.3122 38.806 25.3323 38.8841 25.4885C39.1172 25.883 39.4457 26.687 39.0179 27.5559ZM39.7042 25.1565C39.4107 24.7844 39.0012 23.9643 39.8213 22.7727C39.9195 22.636 40.0372 22.6549 40.1153 22.8117C40.3686 23.2413 40.7402 24.1601 40.1153 25.1175C40.0171 25.2737 39.8414 25.3512 39.7047 25.1565H39.7042ZM39.939 33.1069C39.8024 33.2442 39.6272 33.2631 39.529 33.0283C39.3722 32.5792 39.2367 31.6615 40.4076 30.8018C40.5443 30.7035 40.6425 30.7621 40.6816 30.9384C40.7792 31.4266 40.8384 32.423 39.939 33.1069ZM41.0135 28.8279C40.8378 29.2971 40.3686 30.1764 39.2551 30.2941C39.0592 30.313 38.9036 30.2349 38.9426 30.0006C39.0409 29.551 39.4113 28.6912 40.8567 28.5747C41.0325 28.5546 41.0709 28.6723 41.0135 28.8279ZM40.8378 27.2073C40.6609 27.3043 40.4863 27.3043 40.4272 27.0706C40.3295 26.6209 40.3094 25.6831 41.5798 24.9796C41.736 24.9033 41.8147 24.9796 41.8348 25.1364C41.8738 25.6246 41.7951 26.6209 40.8384 27.2073H40.8378ZM42.401 31.1526C42.3418 31.3485 42.2052 31.4651 42.0099 31.3094C41.6378 31.0355 41.033 30.3331 41.5413 28.9652C41.5993 28.809 41.7176 28.809 41.8353 28.9261C42.1856 29.2776 42.772 30.0781 42.4016 31.1526H42.401ZM43.1814 28.6912C43.0643 28.848 42.8891 28.9261 42.7519 28.7309C42.5848 28.504 42.3683 28.1015 42.424 27.5553C42.4596 27.2079 42.6049 26.803 42.9466 26.347C43.0448 26.2103 43.1608 26.2494 43.24 26.3861C43.3761 26.6365 43.5513 27.0603 43.5473 27.5553C43.5444 27.9096 43.4502 28.3002 43.1814 28.6912ZM42.8891 38.1853C42.7909 38.3421 42.6342 38.4202 42.4791 38.2244C42.1851 37.8523 41.7561 37.0523 42.5566 35.8405C42.6548 35.7039 42.772 35.7234 42.8507 35.8796C43.1039 36.3097 43.495 37.228 42.8897 38.1853H42.8891ZM42.2442 34.7678C42.049 34.7678 41.8928 34.6891 41.9502 34.4554C42.088 34.0045 42.4975 33.185 43.9636 33.1655C44.1394 33.1655 44.1778 33.2631 44.1003 33.4199C43.9045 33.8684 43.3572 34.7287 42.2442 34.7683V34.7678ZM44.8618 36.4855C44.7441 36.6618 44.5879 36.7594 44.4317 36.5837C44.1193 36.2322 43.6696 35.4305 44.4518 34.1808C44.5488 34.043 44.6476 34.0631 44.7441 34.2004C45.018 34.6104 45.4281 35.5275 44.8618 36.4855ZM45.3103 32.8135C44.8808 32.6573 44.0808 32.149 44.1778 30.7035C44.1968 30.5278 44.295 30.5083 44.4518 30.5864C44.8808 30.8213 45.6825 31.426 45.6434 32.5602C45.6233 32.7543 45.5263 32.8916 45.3103 32.8135ZM45.7594 29.7273C45.7204 29.9231 45.6044 30.0592 45.389 29.9415C44.979 29.7273 44.2559 29.1202 44.5482 27.6954C44.5879 27.5387 44.705 27.5197 44.8417 27.6168C45.2523 27.9102 45.9552 28.6131 45.7594 29.7267V29.7273ZM51.6602 31.2899C51.7383 31.778 51.7573 32.7744 50.839 33.4383C50.6822 33.5555 50.507 33.5756 50.4289 33.3407C50.2917 32.8916 50.1941 31.9739 51.4052 31.1526C51.5425 31.0556 51.6401 31.1337 51.6602 31.2899ZM51.2484 28.7889C51.4052 28.7309 51.4833 28.8279 51.4644 29.0048C51.4052 29.4924 51.1313 30.4497 50.0579 30.8213C49.8627 30.8804 49.6858 30.8603 49.6858 30.6071C49.6858 30.1379 49.8627 29.2196 51.2484 28.7895V28.7889ZM48.7003 27.5559C48.7825 27.1361 49.0507 26.6491 49.7249 26.1925C49.8627 26.0938 49.9597 26.1724 49.9798 26.3281C50.0258 26.6175 50.0499 27.085 49.8725 27.5559C49.7501 27.8804 49.5331 28.206 49.1586 28.4765C49.0024 28.5936 48.8273 28.6137 48.7486 28.3788C48.6877 28.1801 48.6354 27.889 48.7003 27.5559ZM47.8894 33.9264C47.6735 34.0045 47.4989 33.9655 47.5173 33.7122C47.5374 33.2442 47.7723 32.3454 49.1971 31.9928C49.3539 31.9538 49.432 32.052 49.3929 32.2087C49.2953 32.6969 48.9634 33.6341 47.8894 33.927V33.9264ZM49.3745 34.8453C49.2562 35.3334 48.8864 36.2511 47.7918 36.5056C47.596 36.5446 47.4208 36.4855 47.4404 36.2511C47.4794 35.7825 47.7528 34.9027 49.1793 34.6104C49.3361 34.5702 49.4142 34.669 49.3751 34.8453H49.3745ZM48.7486 29.551C48.729 30.0592 48.5533 31.0355 47.5179 31.4857C47.3221 31.5638 47.1469 31.5437 47.1274 31.3094C47.0877 30.8414 47.167 29.9231 48.5148 29.3568C48.671 29.2977 48.7486 29.3758 48.7486 29.551ZM46.6392 28.6912C46.5025 28.4529 46.3463 28.0544 46.4405 27.5553C46.5077 27.1975 46.7035 26.7875 47.1274 26.347C47.2451 26.231 47.3427 26.2683 47.4208 26.4251C47.5185 26.6858 47.6333 27.097 47.5862 27.5553C47.5489 27.9217 47.4076 28.318 47.0688 28.6912C46.9321 28.848 46.7564 28.9055 46.6392 28.6912ZM43.0643 43.8702C42.9667 44.3583 42.6342 45.2956 41.5407 45.589C41.3449 45.6287 41.1697 45.589 41.1893 45.3553C41.2088 44.8861 41.4437 43.9874 42.869 43.6548C43.0258 43.6158 43.1039 43.714 43.0649 43.8708L43.0643 43.8702ZM44.647 45.55C44.4701 45.6476 44.2944 45.6476 44.2353 45.4127C44.1382 44.9636 44.1181 44.0264 45.4074 43.3229C45.5647 43.2448 45.6428 43.3229 45.6624 43.4791C45.7014 43.9673 45.6227 44.9636 44.647 45.55ZM46.2286 41.9946C45.8369 42.2869 44.9583 42.775 43.943 42.2685C43.7672 42.1703 43.669 42.0336 43.8453 41.8585C44.1773 41.5254 44.9393 41.0171 46.2286 41.7017C46.3848 41.7804 46.3653 41.897 46.2286 41.9952V41.9946ZM47.6161 44.9636C47.4989 45.1204 47.3421 45.1985 47.1859 45.0027C46.8936 44.6323 46.4824 43.811 47.3427 42.6188C47.4404 42.4833 47.5569 42.5218 47.635 42.6585C47.89 43.088 48.2409 44.0264 47.6161 44.9636ZM47.967 40.061C47.577 40.3728 46.7374 40.9006 45.7014 40.4319C45.5056 40.3728 45.4074 40.2177 45.5647 40.0409C45.8766 39.6894 46.6191 39.1432 47.9469 39.7669C48.1037 39.8456 48.0836 39.9628 47.9664 40.061H47.967ZM46.7168 38.5563C46.5025 38.5167 46.3848 38.3806 46.5209 38.1853C46.7949 37.7948 47.4587 37.1499 48.8468 37.599C49.0018 37.6581 49.0018 37.7747 48.9048 37.8913C48.5734 38.2634 47.7912 38.8877 46.7168 38.5563ZM49.8236 43.772C49.7249 43.9483 49.5888 44.0655 49.4136 43.9092C49.0621 43.5968 48.4953 42.8738 49.0805 41.5455C49.1397 41.3887 49.2562 41.3887 49.3745 41.5254C49.7059 41.8964 50.2526 42.7366 49.8236 43.772ZM51.1514 41.5828C50.7023 41.4674 49.8621 41.0947 49.7639 39.6308C49.7639 39.4539 49.8621 39.4149 50.0183 39.474C50.4875 39.6498 51.3461 40.158 51.4437 41.2716C51.4638 41.4858 51.3857 41.642 51.1514 41.5828ZM51.6395 38.7315C51.62 38.9474 51.5029 39.1036 51.2869 39.0054C50.8574 38.8297 50.0763 38.322 50.2325 36.8576C50.2521 36.6807 50.3692 36.6618 50.5065 36.7399C50.9366 36.9931 51.7176 37.6197 51.6395 38.7315ZM52.049 36.3878C51.9709 36.5636 51.8348 36.6618 51.6395 36.5245C51.2685 36.2322 50.6822 35.5092 51.2479 34.1619C51.307 34.0045 51.4247 34.0045 51.5419 34.1418C51.8738 34.5128 52.4401 35.334 52.049 36.3884V36.3878ZM43.2596 52.7567C42.7714 52.6413 41.8348 52.2887 41.5798 51.1941C41.5407 51 41.5987 50.8237 41.8348 50.8426C42.3028 50.8817 43.1814 51.1366 43.4944 52.562C43.5335 52.7194 43.4364 52.7969 43.2596 52.7573V52.7567ZM45.5452 53.4016C45.0766 53.2075 44.2358 52.6987 44.1577 51.5668C44.1388 51.3899 44.2169 51.2142 44.4518 51.2727C44.9009 51.3899 45.741 51.7999 45.7985 53.2466C45.7985 53.4223 45.7014 53.4608 45.5452 53.4016ZM48.7291 54.1246C48.2409 54.0465 47.2847 53.7537 46.9516 52.6602C46.8931 52.4833 46.9321 52.3088 47.1854 52.3088C47.6546 52.3088 48.5533 52.523 48.9438 53.9305C48.9829 54.0856 48.8858 54.1637 48.7285 54.1246H48.7291ZM51.6602 54.5743C51.152 54.5542 50.174 54.398 49.7059 53.3827C49.6278 53.2069 49.6468 53.0301 49.8816 52.9916C50.3508 52.9336 51.2691 53.0117 51.8543 54.34C51.9135 54.4968 51.8348 54.5749 51.6602 54.5749V54.5743ZM64.4932 43.9092C64.395 44.3974 64.0832 45.3346 62.9891 45.6476C62.8134 45.7056 62.6365 45.6476 62.6365 45.4127C62.6566 44.9435 62.8714 44.0459 64.2974 43.6933C64.4541 43.6543 64.5322 43.7525 64.4932 43.9092ZM62.5986 46.7606C62.3011 47.1321 61.6327 47.7667 60.6105 47.6094C60.5576 47.6013 60.5042 47.5927 60.4496 47.5801C60.2354 47.541 60.1166 47.4239 60.2354 47.2097C60.3124 47.0741 60.4336 46.9093 60.611 46.7612C60.9705 46.4608 61.5655 46.2317 62.5205 46.4665C62.6756 46.5056 62.6963 46.6233 62.5992 46.7606H62.5986ZM63.3016 42.0135C63.4773 42.0135 63.5169 42.1307 63.4371 42.2875C63.2229 42.7366 62.6566 43.5578 61.5241 43.5578C61.3283 43.5767 61.1715 43.4791 61.2502 43.2454C61.3857 42.7963 61.8555 41.9952 63.301 42.0141L63.3016 42.0135ZM60.6105 41.0183C60.7822 40.8357 61.0084 40.6559 61.3082 40.4894C61.4455 40.4113 61.5431 40.4894 61.5632 40.6462C61.6017 41.1268 61.5431 42.0979 60.6105 42.6872C60.5955 42.6969 60.5823 42.7067 60.5668 42.7165C60.3905 42.8141 60.2153 42.8141 60.1562 42.5792C60.0815 42.2364 60.0551 41.6092 60.611 41.0183H60.6105ZM57.9687 37.3256C58.106 36.8765 58.516 36.057 59.9805 36.0364C60.1562 36.0364 60.1958 36.1334 60.1171 36.2913C59.9219 36.7399 59.3757 37.599 58.261 37.6381C58.0669 37.6581 57.9096 37.5599 57.9687 37.3256ZM52.5371 32.5395C52.4401 32.0904 52.4401 31.1521 53.7294 30.4497C53.8856 30.3716 53.9642 30.4497 53.9843 30.6254C54.0217 31.1337 53.9447 32.11 52.9489 32.6762C52.772 32.7934 52.5963 32.7934 52.5371 32.5395ZM52.9489 35.295C52.8111 34.8459 52.714 33.9264 53.9252 33.1069C54.0607 33.0093 54.1589 33.0874 54.1784 33.2442C54.2565 33.7323 54.2767 34.7281 53.3584 35.392C53.2022 35.5097 53.027 35.5287 52.9489 35.295ZM54.9411 35.5672C55.0962 35.5092 55.1743 35.6062 55.1553 35.7831C55.0962 36.2712 54.8239 37.2475 53.7495 37.5996C53.5536 37.6777 53.3773 37.6386 53.3773 37.3854C53.3773 36.9162 53.5335 35.9979 54.9405 35.5677L54.9411 35.5672ZM55.0577 41.3497C54.9796 41.8378 54.6867 42.7951 53.6122 43.1271C53.4376 43.1856 53.2619 43.1472 53.2619 42.9129C53.2619 42.4442 53.456 41.5461 54.8636 41.1349C55.0186 41.0952 55.0967 41.1739 55.0577 41.3502V41.3497ZM54.1991 40.1C54.0222 40.1976 53.8465 40.1787 53.8075 39.9438C53.7495 39.4746 53.7885 38.5563 55.1168 37.9321C55.2736 37.8528 55.3517 37.951 55.3517 38.1078C55.3517 38.6155 55.2145 39.5918 54.1991 40.1ZM55.0387 34.4737C55.0967 34.0045 55.3701 33.1265 56.7966 32.8525C56.9534 32.8135 57.0315 32.9312 56.9723 33.0874C56.8552 33.5755 56.4653 34.4938 55.3707 34.7281C55.1748 34.7678 55.0192 34.7086 55.0393 34.4737H55.0387ZM55.8973 43.5572C55.702 43.6353 55.5269 43.6152 55.5073 43.3815C55.4482 42.9123 55.547 41.994 56.8937 41.4272C57.0505 41.368 57.1286 41.4467 57.1286 41.6224C57.1096 42.1301 56.9327 43.1081 55.8973 43.5572ZM56.4836 40.5675C56.3073 40.6657 56.1322 40.6462 56.0931 40.4113C56.015 39.9432 56.0351 39.0249 57.3433 38.3806C57.4995 38.3019 57.5782 38.3806 57.5782 38.5563C57.5983 39.064 57.4806 40.0403 56.4842 40.5675H56.4836ZM56.4446 37.4623C56.2683 37.5599 56.0742 37.5404 56.0541 37.286C55.9955 36.818 56.0931 35.8997 57.4415 35.3334C57.5983 35.2743 57.6764 35.3524 57.6764 35.5275C57.6563 36.0358 57.4806 37.0132 56.4452 37.4623H56.4446ZM58.4178 43.2052C58.261 43.3028 58.0865 43.3028 58.0078 43.0696C57.8906 42.6188 57.8125 41.7017 59.0432 40.9207C59.1799 40.823 59.2781 40.9011 59.2965 41.0769C59.3556 41.565 59.3556 42.5614 58.4178 43.2057V43.2052ZM58.6332 39.9438C58.4178 39.9628 58.261 39.8847 58.3208 39.6498C58.4184 39.2007 58.7888 38.3421 60.2544 38.2244C60.4301 38.2043 60.4686 38.322 60.4106 38.4777C60.236 38.9468 59.7662 39.8261 58.6332 39.9438ZM51.1904 46.9363C51.5609 46.644 52.3821 46.2133 53.5726 47.0535C53.7104 47.1517 53.6903 47.2694 53.5335 47.3469C53.1045 47.6013 52.1868 47.9723 51.2289 47.3664C51.0721 47.2493 50.994 47.0925 51.1899 46.9369L51.1904 46.9363ZM47.8119 48.9871C47.6161 48.948 47.4788 48.832 47.596 48.6161C47.8309 48.2066 48.4563 47.5227 49.8816 47.8747C50.0384 47.9137 50.0579 48.0297 49.9597 48.167C49.6473 48.5581 48.9243 49.2409 47.8119 48.9871ZM49.9798 50.0225C49.7645 50.0225 49.6077 49.9249 49.6858 49.6906C49.8236 49.2409 50.2722 48.4208 51.7383 48.4404C51.914 48.4404 51.9525 48.5581 51.875 48.7131C51.6608 49.1628 51.1129 50.003 49.9798 50.0225ZM53.75 48.948C53.6518 49.4367 53.34 50.374 52.2454 50.687C52.0697 50.7455 51.8939 50.7059 51.8939 50.4521C51.914 49.9835 52.1288 49.0853 53.5548 48.7332C53.7116 48.6942 53.7897 48.7913 53.7506 48.9475L53.75 48.948ZM53.8666 46.389C53.7495 46.2523 53.7294 46.0772 53.9447 45.979C54.3737 45.8032 55.292 45.6476 56.1913 46.7801C56.2889 46.9179 56.2304 47.015 56.0742 47.054C55.586 47.1718 54.5896 47.27 53.8666 46.3896V46.389ZM55.0186 50.432C54.8245 50.5308 54.6476 50.5107 54.6287 50.2574C54.5896 49.7882 54.6867 48.8711 56.0351 48.3238C56.1913 48.2646 56.2683 48.3427 56.2683 48.5196C56.2493 49.0267 56.0541 50.0036 55.0181 50.4326L55.0186 50.432ZM56.7375 46.1742C56.6203 45.9985 56.6019 45.8228 56.8362 45.7441C57.2848 45.589 58.1829 45.4518 59.0622 46.6239C59.1609 46.7612 59.1018 46.8588 58.9266 46.8978C58.4385 46.9949 57.4421 47.054 56.738 46.1748L56.7375 46.1742ZM59.1018 48.3232C58.9841 48.8114 58.6137 49.7296 57.5196 49.9835C57.3244 50.0426 57.1492 49.9835 57.1682 49.7302C57.2072 49.261 57.4806 48.3812 58.9065 48.0889C59.0627 48.0498 59.1414 48.1475 59.1024 48.3238L59.1018 48.3232ZM59.2184 45.2956C59.0616 45.2169 58.9651 45.0618 59.1403 44.8855C59.3832 44.642 59.869 44.317 60.6105 44.4433C60.8809 44.4893 61.1847 44.5944 61.5241 44.7873C61.6597 44.8654 61.6597 44.9826 61.504 45.0814C61.3042 45.2238 60.9924 45.403 60.6105 45.4885C60.2085 45.5787 59.7295 45.5661 59.2184 45.2956ZM54.9411 53.8903C54.4719 54.0661 53.4945 54.2613 52.675 53.4797C52.5371 53.3442 52.4981 53.1685 52.714 53.0507C53.1235 52.8354 54.0217 52.562 55.0387 53.5974C55.1559 53.7146 55.1168 53.8323 54.9411 53.8909V53.8903ZM57.8705 53.3436C57.4214 53.5578 56.4653 53.8708 55.5866 53.1679C55.4298 53.0502 55.3707 52.8738 55.5665 52.7377C55.957 52.4828 56.8167 52.1123 57.9303 53.0502C58.0675 53.1478 58.0279 53.2644 57.8711 53.3436H57.8705ZM60.8201 52.2887C60.7592 52.3202 60.688 52.3541 60.6105 52.3869C60.116 52.5947 59.3108 52.7653 58.5344 52.1904C58.3782 52.0733 58.3007 51.9165 58.4954 51.7615C58.8371 51.5093 59.5934 51.1786 60.6105 51.8114C60.6983 51.866 60.7873 51.9257 60.8792 51.9952C61.0159 52.0934 60.9768 52.2105 60.8201 52.2887ZM60.6105 50.0059C60.5168 50.0363 60.4192 50.0633 60.313 50.0817C60.1166 50.1207 59.9408 50.0616 59.9799 49.8267C60.0172 49.5327 60.155 49.0767 60.6099 48.7246C60.8792 48.5162 61.2588 48.3445 61.7958 48.2641C61.9531 48.2451 62.0117 48.3422 61.9721 48.4989C61.8492 48.9406 61.4994 49.717 60.6099 50.0059H60.6105ZM63.8678 51.3508C63.4187 51.5857 62.4815 51.9171 61.5821 51.2532C61.4064 51.1177 61.3473 50.9609 61.5431 50.8236C61.9152 50.5497 62.7744 50.1787 63.9252 51.0585C64.0631 51.1556 64.0234 51.2727 63.8672 51.3508H63.8678ZM64.8251 48.5581C64.5707 48.9871 63.966 49.7876 62.8525 49.7101C62.6365 49.6906 62.4815 49.5924 62.5785 49.3782C62.7543 48.9486 63.243 48.167 64.7074 48.2847C64.8831 48.3037 64.9032 48.4019 64.8251 48.5587V48.5581ZM65.9387 46.4482C65.6452 46.8582 64.9607 47.5617 63.8489 47.3854C63.653 47.3463 63.5169 47.2303 63.6329 47.0144C63.8489 46.6044 64.434 45.8819 65.86 46.1559C66.0168 46.1949 66.0357 46.3121 65.9387 46.4482Z" fill="white"/>
</g>
<defs>
<clipPath id="clip0_309_1208">
<rect width="201" height="57.53" fill="white"/>
</clipPath>
</defs>
</svg>